<?xml version="1.0" standalone="no"?>
<!DOCTYPE svg PUBLIC "-//W3C//DTD SVG 20010904//EN"
 "http://www.w3.org/TR/2001/REC-SVG-20010904/DTD/svg10.dtd">
<svg version="1.0" xmlns="http://www.w3.org/2000/svg"
 width="700.000000pt" height="700.000000pt" viewBox="0 0 700.000000 700.000000"
 preserveAspectRatio="xMidYMid meet">
<metadata>
Created by potrace 1.14, written by Peter Selinger 2001-2017
</metadata>
<g transform="translate(0.000000,700.000000) scale(0.100000,-0.100000)"
fill="#000000" stroke="none">
<path d="M3495 6190 c-4 -6 -78 -152 -166 -326 -88 -174 -164 -323 -169 -332
-5 -10 -29 -57 -53 -107 -40 -82 -342 -682 -937 -1860 l-227 -451 80 -119 c73
-110 486 -725 797 -1186 69 -103 244 -364 389 -580 145 -217 271 -402 280
-411 17 -18 -9 -55 561 796 96 144 177 263 180 266 3 3 10 13 15 22 6 10 112
170 237 355 125 186 306 455 402 597 l174 260 -258 510 c-141 281 -424 842
-628 1246 -203 404 -438 869 -520 1033 -83 164 -153 293 -157 287z"/>
</g>
</svg>
